<?xml version="1.0" encoding="UTF-8"?>
<svg id="Layer_2" data-name="Layer 2" xmlns="http://www.w3.org/2000/svg" viewBox="0 0 262.3 195.09">
  <defs>
    <style>
      .cls-1 {
        fill: #fff;
        fill-rule: evenodd;
      }

      .cls-2 {
        fill: #13294b;
      }
    </style>
  </defs>
  <g id="Layer_1-2" data-name="Layer 1">
    <g>
      <path class="cls-1" d="m37.73,42.32C8.06,81.37,1.96,147.25.54,172.65c-.43,6.67,2.37,13.15,7.52,17.41,4.65,3.67,10.63,5.21,16.47,4.25l57-8c33.39-5.17,26.33-63.52,27.27-86.58,5.64-5.65,12.26-14.12,21.66-23.06,9.89,9.88,17.87,18.36,24,24.47.94,22.58-6.58,80,26.37,85.17l56.93,8c5.84.96,11.82-.58,16.47-4.25,5.18-4.24,7.99-10.73,7.52-17.41-.93-25.41-7.06-91.28-36.7-130.33-66.82-88-72.92-19.77-71,47-7.55-8.93-14.59-17.41-15.08-17.88l.49-49.87h-16l-.94,49.87c.94-.94-6.09,7.07-14.1,16,1.88-66.35-4.71-132.23-70.59-45.17l-.1.05Z"/>
      <path class="cls-2" d="m241.17,195.09c-1.16,0-2.33-.09-3.49-.29l-56.92-8c-27.92-4.38-27.25-45.04-26.81-71.94.09-5.26.16-9.81.02-13.51-2.72-2.71-5.75-5.83-9.25-9.44-4.21-4.34-8.96-9.24-14.27-14.55-5.52,5.28-10.05,10.36-14.05,14.85-2.64,2.96-4.92,5.52-7.11,7.73-.14,3.64-.09,8.07-.03,13.19.33,27.58.82,69.26-27.66,73.67l-57.01,8c-5.95.98-12.1-.61-16.85-4.35C2.48,186.1-.4,179.43.04,172.62c1.84-32.86,9.12-93.53,37.29-130.6l.17-.14C61.66,9.98,79.24-3.47,91.26.76c17.44,6.13,18.69,48.54,17.7,85.34,6.65-7.43,12.05-13.57,13.07-14.79l.95-50.23h17l-.49,50.18c.57.64,2.44,2.85,5.87,6.95,2.35,2.81,5.2,6.2,8.17,9.71-1.02-37.59.21-80.89,17.84-87.11,12.1-4.27,29.79,9.22,54.09,41.22,31.22,41.13,36.06,110.37,36.8,130.61.47,6.81-2.4,13.48-7.7,17.82-3.83,3.02-8.56,4.64-13.38,4.64Zm-110.7-119.12l.34.34c5.45,5.45,10.33,10.47,14.63,14.9,3.55,3.66,6.62,6.83,9.37,9.57l.14.14v.2c.17,3.76.09,8.4,0,13.76-.44,26.56-1.09,66.69,25.96,70.94l56.92,8c5.71.94,11.56-.57,16.09-4.15,5.04-4.12,7.79-10.48,7.33-16.98-.74-20.18-5.56-89.17-36.6-130.06C200.98,11.45,183.17-2.3,171.69,1.74c-17.44,6.15-18.13,52.92-17.14,87.57l.04,1.43-.92-1.09c-3.29-3.9-6.49-7.71-9.09-10.81-3.18-3.79-5.7-6.79-5.95-7.04l-.16-.15.49-49.58h-15l-.92,49.01c.06.08.08.17,0,.36h0c-.03.07-.08.16-.14.26l.04.05-.17.15c-.93,1.33-4.16,4.95-13.95,15.87l-.91,1.02.04-1.36c.96-33.9.24-79.67-17-85.73-11.41-4.01-29.14,9.74-52.7,40.87l-.17.14C10.12,79.58,2.87,139.96,1.04,172.68c-.42,6.5,2.32,12.85,7.34,17,4.52,3.56,10.38,5.08,16.07,4.14l57.01-8c27.61-4.28,27.13-45.43,26.8-72.67-.06-5.23-.12-9.74.04-13.44v-.19s.15-.14.15-.14c2.21-2.22,4.53-4.81,7.21-7.82,4.1-4.6,8.75-9.81,14.46-15.25l.35-.34Z"/>
    </g>
  </g>
</svg>